<?xml version="1.0" encoding="UTF-8"?>
<svg id="Warstwa_2" xmlns="http://www.w3.org/2000/svg" viewBox="0 0 301.41 68.26">
    <path d="m83.7,24.45l5.62-.12c-2.91-5.05-6.76-9.67-11.57-13.55C66.56,1.74,52.58-1.51,39.43.63c11.52-.58,23.28,2.9,32.95,10.72,4.66,3.77,8.44,8.22,11.32,13.1"/>
    <path d="m25.33,53.67l-5.32,1.81c4.29,3.94,9.37,7.18,15.12,9.43,13.39,5.24,27.7,4.12,39.6-1.89-10.8,4.03-23.07,4.26-34.65-.28-5.58-2.18-10.53-5.29-14.74-9.08"/>
    <path d="m46.9,16.13c1.46-.09,2.24-.77,6.12,0,0-.03,5.34-.29,15.05,8.93,2.9,2.75,4.51,7.3,6.05,7.74,1.32.38,7.54.73,7.95,3.23.28,2.08-3.99,6.21-9.14,5.91.93-1.39,3.91-1.71,5.34-5.41-1.61-.96-4.16-1.08-6.54-.42-4.48-10.44-17.68-17.66-22.22-18.21-3.74-.52-5.15.11-7.59,0,1.74-.53,4.14-1.76,4.99-1.76"/>
    <path d="m30.45,3.47c1.8.02,2.43-.05,4.22,1.13l-4.22.35c-.13.02-4.97,1.26-7.03,5.27.86.69.83.89,1.76.91,1.45-.02,5-4.71,11.18-4.71,1.14,0,2.16.44,2.18.42.64.38.43,1.02.42,1.9,0,.03-3.95,9.11-10.83,9.14h-1.48c4.4-1.03,7.53-5.13,9.84-9l-4.57,1.34c-3.15.93-6.68,3.82-7.88,3.8-1.35.03-2.26-1.15-5.91-1.12-2.83-.02-6.08,1.53-7.6,2.6.72,1.48,2.11.81,3.31.7-.08.09-.39,1.36-3.87,1.69-.02.18.73,2.99,2.53,4.78,2.12,2.16,5.42,3.34,6.54,3.38,0,.45.21,2.3,1.48,4.71,5.42,10.51,8.39,1.82,14.91,12.31v1.2c-3.52-2.97-9.03-3.96-12.02-4.43-4.24-.66-8.63-.03-8.79,0-1.53.37-5.63,1.17-5.63,1.2,3.25-3.95,11.06-4.1,12.52-4.71-5.15-5.16-4.5-6.82-5.13-7.59-.48-.64-7.9-1.46-7.88-11.74-.02-3.72,7.04-6.44,9.35-6.47,4.19.03,5.63-7.01,12.59-7.03"/>
    <path d="m19.34,14.37c.98-.12.83-.15,2.11.35l.07,1.27c-1.35-.26-3.19-.07-5.13-.21,1.04-.8,1.33-1.3,2.95-1.41"/>
    <path d="m6.33,28.23c2.96.03,6.62,2.45,7.03,2.74-1.98.14-2.22-.21-6.68.14-.03,0-3.76.22-6.68.84,2.04-2.86,1.63-3.79,6.33-3.73"/>
    <path d="m63.08,48.62l4.85,2.32c5.74,2.75,11.18-4.51,13.22-5.84.92,4.63,5.49,13.99,12.1,15.75-.95,1.08-2.04.95-3.31.98-3.19-.03-9.23-5.18-9.21-9.21-.02.02-.16-2.98-.14-3.66-1.81,3.5-5.55,5.8-8.72,5.77-2.42.04-2.95-.18-5.06-1.12-.46-.21-11.97-7.25-12.59-12.17.53.26,6.35,6.22,8.86,7.17"/>
    <path d="m83.47,64.79l-1.9.28c-4.63-.74-5.48-7.5-4.15-9.35,0,0,.8-1.39,1.48-2.04.13,3.36.49,5.92.77,6.68.82,1.88-.57,1.08,3.8,4.43"/>
    <path d="m20.46,49.73c1.25-.53,2.78-.99,3.88-1.56l-3.99-1.08c-.11-1.32-.19-2.71-.35-3.99l-2.15,3.39c-1.3-.35-2.77-.71-4.05-.98.88,1.05,1.73,2.08,2.56,3.14-.64,1.21-1.54,2.27-2.15,3.48l3.77-1.43,2.7,3.02"/>
    <path d="m90.7,32.26c1.01-.89,2.32-1.82,3.18-2.71l-4.13.23c-.52-1.22-1.03-2.51-1.59-3.67l-.97,3.89c-1.35.08-2.85.2-4.15.35,1.17.72,2.3,1.42,3.42,2.17-.23,1.35-.74,2.64-.95,3.98l3.13-2.54,3.51,2.02"/>
    <path d="m114.68,10.05c2.72,0,8.01.89,8.01,4.17,0,1.34-.93,2.5-2.31,2.5-1.53,0-2.57-1.3-5.7-1.3-4.62,0-7,3.91-7,8.46s2.42,8.23,7,8.23c3.13,0,4.4-1.56,5.92-1.56,1.68,0,2.46,1.68,2.46,2.53,0,3.57-5.63,4.4-8.38,4.4-7.56,0-12.81-6-12.81-13.71s5.21-13.71,12.81-13.71Z"/>
    <path d="m125.21,19.66c0-1.79,1.42-2.68,2.76-2.68,1.41,0,2.61.52,2.61,2.24h.07c1.01-1.49,2.09-2.24,3.76-2.24,1.3,0,2.61.93,2.61,2.87,0,1.75-1.6,1.86-3.2,2.61-1.6.74-3.24,1.45-3.24,3.58v8.23c0,1.79-1.12,2.98-2.68,2.98s-2.68-1.19-2.68-2.98v-14.6Z"/>
    <path d="m138.71,19.95c0-1.79,1.12-2.98,2.68-2.98s2.68,1.19,2.68,2.98v9.57c0,2.24,1.68,3.46,3.47,3.46s3.46-1.23,3.46-3.46v-9.57c0-1.79,1.12-2.98,2.68-2.98s2.68,1.19,2.68,2.98v9.69c0,4.77-3.17,7.82-8.83,7.82s-8.83-3.06-8.83-7.82v-9.69Z"/>
    <path d="m163.63,28.89c.37,2.64,2.57,3.87,5.07,3.87,2.76,0,4.66-2.16,6.07-2.16,1.15,0,2.2,1.15,2.2,2.31,0,2.31-4.77,4.55-8.75,4.55-6.04,0-10.06-4.4-10.06-10.32,0-5.44,3.95-10.39,9.61-10.39s9.65,5.29,9.65,9.76c0,1.6-.71,2.38-2.35,2.38h-11.44Zm8.42-3.58c-.3-2.35-1.79-4.1-4.28-4.1s-3.99,1.83-4.25,4.1h8.53Z"/>
    <path d="m180.17,11.31c0-1.79,1.12-2.98,2.68-2.98s2.68,1.19,2.68,2.98v22.94c0,1.79-1.12,2.98-2.68,2.98s-2.68-1.19-2.68-2.98V11.31Z"/>
    <path d="m190.88,21.89h-1.19c-1.45,0-2.35-.89-2.35-2.35,0-1.34,1-2.35,2.35-2.35h1.19v-3.2c0-1.79,1.12-2.98,2.68-2.98s2.68,1.19,2.68,2.98v3.2h1.53c1.38,0,2.57.63,2.57,2.35s-1.19,2.35-2.57,2.35h-1.53v12.37c0,1.79-1.12,2.98-2.68,2.98s-2.68-1.19-2.68-2.98v-12.37Z"/>
    <path d="m233.5,13.55c0-1.53,1.04-2.91,2.91-2.91h9.54c1.64,0,2.5,1.27,2.5,2.57s-.82,2.57-2.5,2.57h-6.86v5.44h5.77c1.79,0,2.68,1.27,2.68,2.53s-.89,2.61-2.68,2.61h-5.77v8.12c0,1.86-1.19,2.9-2.79,2.9s-2.79-1.04-2.79-2.9V13.55Z"/>
    <path d="m249.7,19.8c0-1.79,1.42-2.68,2.76-2.68,1.41,0,2.61.52,2.61,2.24h.07c1.01-1.49,2.09-2.24,3.76-2.24,1.31,0,2.61.93,2.61,2.87,0,1.75-1.6,1.86-3.2,2.61-1.6.75-3.24,1.45-3.24,3.58v8.23c0,1.79-1.12,2.98-2.68,2.98s-2.68-1.19-2.68-2.98v-14.6Z"/>
    <path d="m266.68,29.04c.37,2.64,2.57,3.87,5.07,3.87,2.76,0,4.66-2.16,6.07-2.16,1.15,0,2.19,1.16,2.19,2.31,0,2.31-4.77,4.54-8.75,4.54-6.04,0-10.06-4.4-10.06-10.32,0-5.44,3.95-10.39,9.61-10.39s9.65,5.29,9.65,9.76c0,1.6-.71,2.38-2.35,2.38h-11.43Zm8.42-3.57c-.3-2.35-1.79-4.1-4.28-4.1s-3.99,1.82-4.25,4.1h8.53Z"/>
    <path d="m287.63,29.04c.38,2.64,2.57,3.87,5.07,3.87,2.76,0,4.66-2.16,6.07-2.16,1.15,0,2.2,1.16,2.2,2.31,0,2.31-4.77,4.54-8.75,4.54-6.04,0-10.06-4.4-10.06-10.32,0-5.44,3.95-10.39,9.61-10.39s9.65,5.29,9.65,9.76c0,1.6-.71,2.38-2.35,2.38h-11.44Zm8.42-3.57c-.3-2.35-1.79-4.1-4.28-4.1s-3.99,1.82-4.24,4.1h8.53Z"/>
    <path d="m217.61,16.97c-1.3,0-2.23.71-2.68,1.9l-3.95,10.09-3.69-10.09c-.45-1.19-1.38-1.9-2.68-1.9-1.12,0-2.53.97-2.53,2.31,0,.56.11.97.26,1.38l5.93,14.79-1.05,2.61h0l-.72,1.78c-.19.48-.34,1.04-.34,1.56,0,1.15.97,2.31,2.8,2.31,1.27,0,2.09-1.01,2.54-2.12l1.41-3.53h0l6.99-17.39c.18-.41.26-.82.26-1.38,0-1.34-1.42-2.31-2.53-2.31Z"/>
    <path d="m103.12,58.65v-12.88h3.13v12.88h-3.13Z"/>
    <path d="m123.51,58.79l-4.16-4.46c-.95-1.03-2.48-2.71-3.27-3.73l-.04.02c.06.93.08,1.59.08,2.34v5.69h-3.13v-12.88h2.53l3.61,3.96c.85.95,2.04,2.28,2.85,3.29l.04-.02c-.02-.75-.06-1.52-.06-2.24v-4.99h3.13v13.03h-1.58Z"/>
    <path d="m137.73,48.27v10.38h-3.11v-10.4h-3.9v-2.48h10.89v2.5h-3.88Z"/>
    <path d="m147.25,58.65v-12.88h7.51v2.56h-4.38v2.57h3.57v2.6h-3.57v2.59h4.95v2.56h-8.08Z"/>
    <path d="m168.75,58.65l-3.47-5.07h-1.11v5.07h-3.01v-12.88h4.81c2.2,0,4.16,1.47,4.16,3.9,0,1.51-.89,2.73-1.98,3.23l4.1,5.76h-3.49Zm-3.25-10.42h-1.33v2.89h1.33c.81,0,1.66-.45,1.66-1.45s-.85-1.44-1.66-1.44Z"/>
    <path d="m187.78,58.79l-4.16-4.46c-.95-1.03-2.48-2.71-3.27-3.73l-.04.02c.06.93.08,1.59.08,2.34v5.69h-3.13v-12.88h2.52l3.62,3.96c.85.95,2.04,2.28,2.85,3.29l.04-.02c-.02-.75-.06-1.52-.06-2.24v-4.99h3.13v13.03h-1.57Z"/>
    <path d="m204.09,58.65l-1.03-2.69h-4l-1.01,2.69h-3.07l5.07-12.98h2.16l5.07,12.98h-3.19Zm-2.22-6.5c-.28-.81-.52-1.68-.79-2.71h-.04c-.24,1.05-.51,1.92-.77,2.71l-.57,1.45h2.73l-.57-1.45Z"/>
    <path d="m217.5,48.27v10.38h-3.11v-10.4h-3.9v-2.48h10.89v2.5h-3.88Z"/>
    <path d="m227.21,58.65v-12.88h3.13v12.88h-3.13Z"/>
    <path d="m243.61,58.95c-3.55,0-6.92-2.61-6.92-6.77s3.37-6.73,6.92-6.73,6.95,2.6,6.95,6.73-3.37,6.77-6.95,6.77Zm0-10.74c-1.94,0-3.76,1.58-3.76,3.98s1.82,4,3.76,4,3.78-1.57,3.78-4-1.84-3.98-3.78-3.98Z"/>
    <path d="m267.22,58.79l-4.16-4.46c-.95-1.03-2.48-2.71-3.27-3.73l-.04.02c.06.93.08,1.59.08,2.34v5.69h-3.13v-12.88h2.52l3.61,3.96c.85.95,2.04,2.28,2.85,3.29l.04-.02c-.02-.75-.06-1.52-.06-2.24v-4.99h3.13v13.03h-1.57Z"/>
    <path d="m283.54,58.65l-1.03-2.69h-4l-1.01,2.69h-3.07l5.07-12.98h2.16l5.07,12.98h-3.19Zm-2.22-6.5c-.28-.81-.52-1.68-.79-2.71h-.04c-.24,1.05-.5,1.92-.77,2.71l-.57,1.45h2.73l-.57-1.45Z"/>
    <path d="m292.37,58.65v-12.88h3.13v10.2h5.17v2.69h-8.3Z"/>
    <path d="m79.52,5.59h-.93v-.42h2.33v.42h-.92v2.42h-.47v-2.42m1.72-.42h.7l.72,2.28.69-2.28h.69v2.84h-.44v-2.38l-.73,2.38h-.43l-.77-2.42v2.42h-.44v-2.84Z"/>
</svg>